<mxfile host="app.diagrams.net" agent="Mozilla/5.0 (Windows NT 10.0; Win64; x64) AppleWebKit/537.36 (KHTML, like Gecko) Chrome/127.0.0.0 Safari/537.36 Edg/127.0.0.0" version="24.7.6">
  <diagram name="Page-1" id="iCfVHWvubjLdOC9LdsKN">
    <mxGraphModel dx="1545" dy="963" grid="1" gridSize="10" guides="1" tooltips="1" connect="1" arrows="1" fold="1" page="1" pageScale="1" pageWidth="1169" pageHeight="827" math="0" shadow="0">
      <root>
        <mxCell id="0" />
        <mxCell id="1" parent="0" />
        <mxCell id="8zRdXaXAbW-L0DH_pkQ1-27" value="" style="html=1;verticalLabelPosition=bottom;align=center;labelBackgroundColor=#ffffff;verticalAlign=top;strokeWidth=11;strokeColor=#000000;shadow=0;dashed=0;shape=mxgraph.ios7.icons.monitor;" vertex="1" parent="1">
          <mxGeometry x="247" y="39" width="790" height="730" as="geometry" />
        </mxCell>
        <mxCell id="8zRdXaXAbW-L0DH_pkQ1-2" value="" style="rounded=0;whiteSpace=wrap;html=1;fontFamily=Verdana;strokeWidth=2;" vertex="1" parent="1">
          <mxGeometry x="317" y="90" width="650" height="532" as="geometry" />
        </mxCell>
        <mxCell id="8zRdXaXAbW-L0DH_pkQ1-5" value="&lt;b style=&quot;font-size: 16px;&quot;&gt;Live stream EEG data&lt;/b&gt;" style="ellipse;whiteSpace=wrap;html=1;fontSize=16;fontFamily=Verdana;strokeWidth=2;" vertex="1" parent="1">
          <mxGeometry x="350" y="140" width="203" height="70" as="geometry" />
        </mxCell>
        <mxCell id="8zRdXaXAbW-L0DH_pkQ1-6" value="&lt;div style=&quot;font-size: 16px;&quot;&gt;&lt;b style=&quot;font-size: 16px;&quot;&gt;&lt;br style=&quot;font-size: 16px;&quot;&gt;&lt;/b&gt;&lt;/div&gt;&lt;b style=&quot;font-size: 16px;&quot;&gt;Analyse EEG data&lt;/b&gt;" style="ellipse;whiteSpace=wrap;html=1;fontSize=16;fontFamily=Verdana;verticalAlign=top;strokeWidth=2;" vertex="1" parent="1">
          <mxGeometry x="337" y="247" width="610" height="200" as="geometry" />
        </mxCell>
        <mxCell id="8zRdXaXAbW-L0DH_pkQ1-7" value="&lt;b style=&quot;font-size: 16px;&quot;&gt;Mode&lt;/b&gt;:&lt;div style=&quot;font-size: 16px;&quot;&gt;Visually Evoked Potential&lt;/div&gt;" style="ellipse;whiteSpace=wrap;html=1;fontSize=16;fontFamily=Verdana;strokeWidth=2;" vertex="1" parent="1">
          <mxGeometry x="377" y="300" width="180" height="110" as="geometry" />
        </mxCell>
        <mxCell id="8zRdXaXAbW-L0DH_pkQ1-8" value="&lt;b style=&quot;font-size: 16px;&quot;&gt;Mode&lt;/b&gt;:&lt;div style=&quot;font-size: 16px;&quot;&gt;Stress Detection&lt;/div&gt;" style="ellipse;whiteSpace=wrap;html=1;fontSize=16;fontFamily=Verdana;strokeWidth=2;" vertex="1" parent="1">
          <mxGeometry x="587" y="325" width="110" height="100" as="geometry" />
        </mxCell>
        <mxCell id="8zRdXaXAbW-L0DH_pkQ1-9" value="&lt;b style=&quot;font-size: 16px;&quot;&gt;Mode&lt;/b&gt;:&lt;div style=&quot;font-size: 16px;&quot;&gt;Steady State Visually Evoked Potential&lt;/div&gt;" style="ellipse;whiteSpace=wrap;html=1;fontSize=16;fontFamily=Verdana;strokeWidth=2;" vertex="1" parent="1">
          <mxGeometry x="727" y="305" width="180" height="100" as="geometry" />
        </mxCell>
        <mxCell id="8zRdXaXAbW-L0DH_pkQ1-12" value="" style="shape=image;verticalLabelPosition=bottom;labelBackgroundColor=default;verticalAlign=top;aspect=fixed;imageAspect=0;image=https://cdn-icons-png.flaticon.com/512/4305/4305203.png;" vertex="1" parent="1">
          <mxGeometry x="77" y="182" width="100" height="100" as="geometry" />
        </mxCell>
        <mxCell id="8zRdXaXAbW-L0DH_pkQ1-13" value="" style="endArrow=none;html=1;rounded=0;exitX=0.995;exitY=0.72;exitDx=0;exitDy=0;exitPerimeter=0;entryX=0.997;entryY=0.109;entryDx=0;entryDy=0;entryPerimeter=0;" edge="1" parent="1" source="8zRdXaXAbW-L0DH_pkQ1-12" target="8zRdXaXAbW-L0DH_pkQ1-12">
          <mxGeometry width="50" height="50" relative="1" as="geometry">
            <mxPoint x="597" y="442" as="sourcePoint" />
            <mxPoint x="647" y="392" as="targetPoint" />
          </mxGeometry>
        </mxCell>
        <mxCell id="8zRdXaXAbW-L0DH_pkQ1-14" value="" style="endArrow=none;html=1;rounded=0;exitX=1.001;exitY=0.42;exitDx=0;exitDy=0;exitPerimeter=0;entryX=0;entryY=0.5;entryDx=0;entryDy=0;strokeWidth=3;" edge="1" parent="1" source="8zRdXaXAbW-L0DH_pkQ1-12" target="8zRdXaXAbW-L0DH_pkQ1-5">
          <mxGeometry width="50" height="50" relative="1" as="geometry">
            <mxPoint x="267" y="182" as="sourcePoint" />
            <mxPoint x="427" y="142" as="targetPoint" />
          </mxGeometry>
        </mxCell>
        <mxCell id="8zRdXaXAbW-L0DH_pkQ1-15" value="" style="endArrow=none;html=1;rounded=0;entryX=0;entryY=0;entryDx=0;entryDy=0;strokeWidth=3;dashed=1;endFill=0;startArrow=open;startFill=0;exitX=0.36;exitY=0.947;exitDx=0;exitDy=0;exitPerimeter=0;" edge="1" parent="1" source="8zRdXaXAbW-L0DH_pkQ1-5" target="8zRdXaXAbW-L0DH_pkQ1-6">
          <mxGeometry width="50" height="50" relative="1" as="geometry">
            <mxPoint x="641.58" y="162" as="sourcePoint" />
            <mxPoint x="641.58" y="232" as="targetPoint" />
          </mxGeometry>
        </mxCell>
        <mxCell id="8zRdXaXAbW-L0DH_pkQ1-16" value="&lt;font style=&quot;font-size: 17px;&quot;&gt;&amp;lt;&amp;lt; extends &amp;gt;&amp;gt;&lt;/font&gt;" style="edgeLabel;html=1;align=center;verticalAlign=middle;resizable=0;points=[];fontSize=17;fontFamily=Verdana;" vertex="1" connectable="0" parent="8zRdXaXAbW-L0DH_pkQ1-15">
          <mxGeometry x="0.0503" y="2" relative="1" as="geometry">
            <mxPoint as="offset" />
          </mxGeometry>
        </mxCell>
        <mxCell id="8zRdXaXAbW-L0DH_pkQ1-18" value="" style="endArrow=none;html=1;rounded=0;exitX=0.5;exitY=0;exitDx=0;exitDy=0;entryX=0.5;entryY=1;entryDx=0;entryDy=0;strokeWidth=3;dashed=1;endFill=0;startArrow=open;startFill=0;" edge="1" parent="1" source="8zRdXaXAbW-L0DH_pkQ1-10" target="8zRdXaXAbW-L0DH_pkQ1-6">
          <mxGeometry width="50" height="50" relative="1" as="geometry">
            <mxPoint x="651.58" y="172" as="sourcePoint" />
            <mxPoint x="652" y="272" as="targetPoint" />
          </mxGeometry>
        </mxCell>
        <mxCell id="8zRdXaXAbW-L0DH_pkQ1-19" value="&lt;font style=&quot;font-size: 17px;&quot;&gt;&amp;lt;&amp;lt; includes &amp;gt;&amp;gt;&lt;/font&gt;" style="edgeLabel;html=1;align=center;verticalAlign=middle;resizable=0;points=[];fontSize=17;fontFamily=Verdana;" vertex="1" connectable="0" parent="8zRdXaXAbW-L0DH_pkQ1-18">
          <mxGeometry x="0.0503" y="2" relative="1" as="geometry">
            <mxPoint x="4" y="-2" as="offset" />
          </mxGeometry>
        </mxCell>
        <mxCell id="8zRdXaXAbW-L0DH_pkQ1-25" value="&lt;font style=&quot;font-size: 22px;&quot;&gt;&lt;b style=&quot;font-size: 22px;&quot;&gt;User&lt;/b&gt;&lt;/font&gt;" style="edgeLabel;html=1;align=center;verticalAlign=middle;resizable=0;points=[];fontSize=22;fontFamily=Verdana;" vertex="1" connectable="0" parent="8zRdXaXAbW-L0DH_pkQ1-18">
          <mxGeometry x="0.0503" y="2" relative="1" as="geometry">
            <mxPoint x="-523" y="-173" as="offset" />
          </mxGeometry>
        </mxCell>
        <mxCell id="8zRdXaXAbW-L0DH_pkQ1-4" value="&lt;font style=&quot;font-size: 19px;&quot;&gt;&lt;b style=&quot;font-size: 19px;&quot;&gt;Kortex&lt;/b&gt;&lt;/font&gt;" style="rounded=0;whiteSpace=wrap;html=1;fontSize=19;fontFamily=Verdana;strokeWidth=3;container=0;" vertex="1" parent="1">
          <mxGeometry x="317" y="90" width="130" height="34.02985074626866" as="geometry" />
        </mxCell>
        <mxCell id="8zRdXaXAbW-L0DH_pkQ1-10" value="&lt;b style=&quot;font-size: 16px;&quot;&gt;Generate insights / diagnosis using Gemini&lt;/b&gt;" style="ellipse;whiteSpace=wrap;html=1;fontSize=16;fontFamily=Verdana;strokeWidth=2;" vertex="1" parent="1">
          <mxGeometry x="392.35999999999996" y="512.4100000000001" width="499.29" height="86.95" as="geometry" />
        </mxCell>
        <mxCell id="8zRdXaXAbW-L0DH_pkQ1-28" value="" style="html=1;verticalLabelPosition=bottom;align=center;labelBackgroundColor=#ffffff;verticalAlign=top;strokeWidth=3;strokeColor=#000000;shadow=0;dashed=0;shape=mxgraph.ios7.icons.bluetooth;pointerEvents=1" vertex="1" parent="1">
          <mxGeometry x="207" y="172" width="15" height="28.799999999999997" as="geometry" />
        </mxCell>
        <mxCell id="8zRdXaXAbW-L0DH_pkQ1-30" value="&lt;b style=&quot;font-size: 16px;&quot;&gt;Fill Context Form&lt;/b&gt;" style="ellipse;whiteSpace=wrap;html=1;fontSize=16;fontFamily=Verdana;strokeWidth=2;" vertex="1" parent="1">
          <mxGeometry x="760" y="140" width="180" height="70" as="geometry" />
        </mxCell>
        <mxCell id="8zRdXaXAbW-L0DH_pkQ1-31" value="" style="endArrow=none;html=1;rounded=0;exitX=0;exitY=0.5;exitDx=0;exitDy=0;entryX=1;entryY=0.5;entryDx=0;entryDy=0;strokeWidth=3;dashed=1;endFill=0;startArrow=open;startFill=0;" edge="1" parent="1" source="8zRdXaXAbW-L0DH_pkQ1-30" target="8zRdXaXAbW-L0DH_pkQ1-5">
          <mxGeometry width="50" height="50" relative="1" as="geometry">
            <mxPoint x="652" y="522" as="sourcePoint" />
            <mxPoint x="652" y="457" as="targetPoint" />
          </mxGeometry>
        </mxCell>
        <mxCell id="8zRdXaXAbW-L0DH_pkQ1-32" value="&lt;font style=&quot;font-size: 17px;&quot;&gt;&amp;lt;&amp;lt; includes &amp;gt;&amp;gt;&lt;/font&gt;" style="edgeLabel;html=1;align=center;verticalAlign=middle;resizable=0;points=[];fontSize=17;fontFamily=Verdana;" vertex="1" connectable="0" parent="8zRdXaXAbW-L0DH_pkQ1-31">
          <mxGeometry x="0.0503" y="2" relative="1" as="geometry">
            <mxPoint x="4" y="-2" as="offset" />
          </mxGeometry>
        </mxCell>
      </root>
    </mxGraphModel>
  </diagram>
</mxfile>
